<svg xmlns="http://www.w3.org/2000/svg" xmlns:xlink="http://www.w3.org/1999/xlink" width="125.439" height="32" viewBox="0 0 125.439 32"><defs><style>.a{fill:none;}.b{clip-path:url(#a);}.c{fill:#3a7995;}.d{fill:#47c1bf;}</style><clipPath id="a"><rect class="a" width="125.439" height="32"/></clipPath></defs><g class="b"><path class="c" d="M101.451,13.772H97.418V9.8h4.033V6.886c0-4.375,2.316-6.886,7.188-6.886a10.7,10.7,0,0,1,3.075.4V4.456a7,7,0,0,0-1.758-.2c-2.355,0-3.114.85-3.114,2.916V9.8h4.872v3.97h-4.872V31.555h-5.391Z" transform="translate(-46.64 0)"/><path class="c" d="M129.3,18.144h5.072l.119,3.362h.08c1.318-2.512,3.195-3.808,5.391-3.808a5.621,5.621,0,0,1,1.956.364v4.78a8.474,8.474,0,0,0-2.036-.243c-3.395,0-5.192,2.269-5.192,4.82V39.9H129.3Z" transform="translate(-61.903 -8.341)"/><path class="c" d="M175.69,36.615c-1.917,2.309-4.672,3.726-8.706,3.726-7.268,0-11.1-4.536-11.1-11.3,0-6.562,3.793-11.342,10.542-11.342,6.669,0,10.023,4.658,10.023,10.653a14.85,14.85,0,0,1-.16,2.43h-14.9c.4,3.321,2.157,5.388,5.711,5.388a6.137,6.137,0,0,0,5.152-2.633ZM171.1,27.1c-.24-3.079-1.558-5.225-4.713-5.225-3.115,0-4.672,2.106-4.992,5.225Z" transform="translate(-74.631 -8.341)"/><path class="c" d="M199.515,21.258c0-6.481,3.634-11.5,9.385-11.5a8.022,8.022,0,0,1,6.589,3.281h.08V.843h5.391V31.952h-5.072l-.12-3.281h-.08A8.324,8.324,0,0,1,208.7,32.4c-5.751,0-9.185-4.942-9.185-11.139m16.213-.2c0-4.213-1.917-7.007-5.391-7.007-3.633,0-5.351,3.24-5.351,7.088,0,3.645,1.677,6.967,5.271,6.967,3.554,0,5.471-3,5.471-7.048" transform="translate(-95.521 -0.397)"/><path class="d" d="M63.595,31.952,52.054.843h-5.76L57.835,31.952Z" transform="translate(-22.164 -0.397)"/><path class="d" d="M85.7,31.952,74.157.843H68.4L79.937,31.952Z" transform="translate(-32.746 -0.397)"/><path class="c" d="M24.15,31.952h5.76L18.369.843H11.541L0,31.952H5.76l2.825-7.615h12.74ZM10.3,19.719,14.955,7.166l4.657,12.553Z" transform="translate(0 -0.397)"/></g></svg>